<?xml version="1.0" encoding="UTF-8"?>
<svg width="43px" height="61px" viewBox="0 0 43 61" version="1.1" xmlns="http://www.w3.org/2000/svg" xmlns:xlink="http://www.w3.org/1999/xlink">
    <!-- Generator: sketchtool 51.2 (57519) - http://www.bohemiancoding.com/sketch -->
    <title>5BC75D7C-CAB2-4813-8A86-5F820606D5BE</title>
    <desc>Created with sketchtool.</desc>
    <defs>
        <polygon id="path-1" points="0 0 43 0 43 61 0 61"></polygon>
    </defs>
    <g id="Page-1" stroke="none" stroke-width="1" fill="none" fill-rule="evenodd" opacity="0.709933036">
        <g id="Tela-1-Copy-5" transform="translate(-37.000000, -204.000000)">
            <g id="Group-3" transform="translate(37.000000, 204.000000)">
                <mask id="mask-2" fill="white">
                    <use xlink:href="#path-1"></use>
                </mask>
                <g id="Clip-2"></g>
                <path d="M21.5,2.93749398 C32.3887668,2.93749398 39.984036,6.74007994 40.0430857,10.1696042 L39.9574636,10.8628527 C39.0746704,14.1161273 31.7406962,17.4810267 21.5,17.4810267 C11.2578275,17.4810267 3.92532958,14.1161273 3.04253639,10.8628527 L2.95691431,10.1696042 C3.01596402,6.74007994 10.6112332,2.93749398 21.5,2.93749398 Z M36.5709626,38.5296398 C35.3663485,37.2312675 33.6598119,36.4073004 31.7569349,36.4073004 C29.3668978,36.4073004 27.288348,37.7027352 26.1294974,39.6194501 C24.935217,38.4385775 23.3039687,37.7071415 21.5,37.7071415 C19.6975076,37.7071415 18.0633068,38.4385775 16.8705026,39.6194501 C15.711652,37.7027352 13.6331022,36.4073004 11.2430651,36.4073004 C9.33871189,36.4073004 7.63512771,37.2312675 6.42903735,38.5296398 L3.67879703,16.0666233 C7.47864598,18.7309304 13.9076833,20.4185207 21.5,20.4185207 C29.0923167,20.4185207 35.521354,18.7309304 39.321203,16.0666233 L36.5709626,38.5296398 Z M35.4106358,48.0148079 L34.8127575,52.9042666 C34.8053763,52.9630165 34.8009475,53.0217663 34.8009475,53.081985 C34.8009475,54.5257633 32.3562895,56.3646345 28.1061865,57.35457 L28.1061865,44.3414716 L28.1061865,43.0430993 C28.1061865,41.0030097 29.7433397,39.3447944 31.7569349,39.3447944 C33.7720063,39.3447944 35.4106358,41.0030097 35.4106358,43.0430993 L35.4106358,48.0148079 Z M25.1537009,57.6835693 L25.1537009,57.8539439 C24.016994,57.9846624 22.8035224,58.062506 21.5,58.062506 C20.1964776,58.062506 18.983006,57.9846624 17.8462991,57.8539439 L17.8462991,57.6835693 L17.8462991,44.3414716 C17.8462991,42.3028508 19.4864048,40.6446355 21.5,40.6446355 C23.5135952,40.6446355 25.1537009,42.3028508 25.1537009,44.3414716 L25.1537009,57.6835693 Z M14.8938135,44.3414716 L14.8938135,57.35457 C10.6437105,56.3646345 8.19905246,54.5257633 8.19905246,53.081985 C8.19905246,53.0217663 8.19462373,52.9630165 8.18724252,52.9042666 L7.58936419,48.0148079 L7.58936419,43.0430993 C7.58936419,41.0030097 9.22799368,39.3447944 11.2430651,39.3447944 C13.2566603,39.3447944 14.8938135,41.0030097 14.8938135,43.0430993 L14.8938135,44.3414716 Z M0.0103336995,10.3869787 L0.0442872837,10.6557594 C0.06347844,10.8936964 0.0797171107,11.1301647 0.129909366,11.3622267 L5.24804312,53.1789223 C5.34842763,57.6439131 12.3015312,61 21.5,61 C30.6984688,61 37.6515724,57.6439131 37.7519569,53.1789223 L42.8700906,11.3622267 C42.9202829,11.1301647 42.9365216,10.8936964 42.9557127,10.6557594 L42.9896663,10.3869787 C42.9911425,10.3752287 42.9852376,10.3649475 42.9867138,10.3517288 C42.9881901,10.3047289 43,10.257729 43,10.2092603 C43,4.38861601 33.7572439,0 21.5,0 C9.24275611,0 0,4.38861601 0,10.2092603 C0,10.257729 0.0118099423,10.3047289 0.0132861851,10.3517288 C0.0147624279,10.3649475 0.00885745674,10.3752287 0.0103336995,10.3869787 Z" id="Fill-1" fill="#F2F5F7" mask="url(#mask-2)"></path>
            </g>
        </g>
    </g>
</svg>